<svg xmlns="http://www.w3.org/2000/svg" version="1.1" xmlns:xlink="http://www.w3.org/1999/xlink" xmlns:svgjs="http://svgjs.com/svgjs" width="1000" height="1000"><rect width="1000" height="1000" rx="0" ry="0" fill="#ffffff"></rect><g transform="matrix(10,0,0,10,-0.09000205993652344,-8.31592082977295)"><svg xmlns="http://www.w3.org/2000/svg" version="1.1" xmlns:xlink="http://www.w3.org/1999/xlink" xmlns:svgjs="http://svgjs.com/svgjs" width="100" height="100"><svg viewBox="0 0 100 100" xmlns="http://www.w3.org/2000/svg"><g data-name="Layer 2" id="Layer_2"><path d="M27.9,78.91a.5.5,0,0,1-.48-.37l-6-21.3a.5.5,0,0,1,.35-.62.49.49,0,0,1,.61.34l6,21.31a.51.51,0,0,1-.35.62Z"></path><path d="M5,90.25a.5.5,0,0,1-.48-.37.49.49,0,0,1,.34-.61l22.51-6.35a1.24,1.24,0,0,0,.85-1.52l-.8-2.86a.49.49,0,0,1,.34-.61.51.51,0,0,1,.62.34l.81,2.87a2.24,2.24,0,0,1-1.55,2.74L5.14,90.23Z"></path><path d="M5,58.28a.5.5,0,0,1-.48-.37.49.49,0,0,1,.34-.61L19,53.3a2.23,2.23,0,0,1,2.75,1.53l.6,2.13a.5.5,0,0,1-1,.28l-.6-2.13a1.24,1.24,0,0,0-1.51-.85l-14.16,4Z"></path><path d="M21.89,57.6a.49.49,0,0,1-.41-.22.5.5,0,0,1,.14-.7L30.23,51a9.17,9.17,0,0,0,4.63-7.46l1.55-26.32a3,3,0,0,1,6.06,0l.91,15.5a.49.49,0,0,1-.13.36.46.46,0,0,1-.35.16,1.44,1.44,0,0,0-1.5,1.15l-1,14.45a.49.49,0,0,1-.53.46.5.5,0,0,1-.47-.54l1-14.44a2.33,2.33,0,0,1,2-2l-.89-15a2,2,0,0,0-4.07,0L35.86,43.57a10.16,10.16,0,0,1-5.1,8.25l-8.59,5.7A.57.57,0,0,1,21.89,57.6Z"></path><path d="M27.9,78.91a.51.51,0,0,1-.5-.43.51.51,0,0,1,.42-.57,36.2,36.2,0,0,0,7.29-1.74c6.2-2,8-3.51,8.87-4.7a11.52,11.52,0,0,0,2-7.6V55.72a.5.5,0,0,1,1,0v8.13a12.48,12.48,0,0,1-2.23,8.22c-1,1.32-2.9,3-9.37,5.06A37.75,37.75,0,0,1,28,78.9Z"></path><path d="M46.51,56.22a.5.5,0,0,1-.5-.5c0-5.28-1.42-21.19-1.44-21.35A1.45,1.45,0,0,0,43,33.21c-.89,0-1.54.53-1.59,1.15l-1,14.45a.5.5,0,1,1-1-.08l1-14.44a2.41,2.41,0,0,1,2.42-2.07H43a2.45,2.45,0,0,1,2.58,2.08c0,.15,1.44,16.11,1.44,21.43A.5.5,0,0,1,46.51,56.22Z"></path><path d="M72.09,78.1l-.13,0a.51.51,0,0,1-.35-.62l6-21.31a.5.5,0,1,1,1,.28l-6,21.3A.52.52,0,0,1,72.09,78.1Z"></path><path d="M95,89.44l-.13,0L72.35,83.07a2.24,2.24,0,0,1-1.55-2.74l.81-2.87a.5.5,0,0,1,.62-.34.48.48,0,0,1,.34.61l-.8,2.87a1.24,1.24,0,0,0,.85,1.51l22.51,6.35a.49.49,0,0,1,.34.61A.5.5,0,0,1,95,89.44Z"></path><path d="M95,57.47l-.13,0-14.16-4a1.24,1.24,0,0,0-1.52.85l-.6,2.13a.5.5,0,0,1-1-.28l.6-2.13A2.24,2.24,0,0,1,81,52.49l14.16,4a.49.49,0,0,1,.34.61A.5.5,0,0,1,95,57.47Z"></path><path d="M78.1,56.79a.57.57,0,0,1-.28-.08L69.21,51a10.17,10.17,0,0,1-5.08-8.24L62.59,16.44a2,2,0,0,0-4.07,0l-.89,15a2.33,2.33,0,0,1,2,2l1,14.44a.5.5,0,0,1-.46.54.5.5,0,0,1-.54-.46l-1-14.45a1.44,1.44,0,0,0-1.5-1.15.48.48,0,0,1-.35-.16.49.49,0,0,1-.13-.36l.91-15.5a3,3,0,0,1,6.06,0L65.13,42.7a9.17,9.17,0,0,0,4.6,7.44l8.65,5.73a.51.51,0,0,1,.14.7A.52.52,0,0,1,78.1,56.79Z"></path><path d="M72.09,78.1H72a37.93,37.93,0,0,1-7.44-1.77c-6.47-2.11-8.37-3.74-9.37-5.06A12.52,12.52,0,0,1,53,63v-8.1a.51.51,0,0,1,.5-.5.5.5,0,0,1,.5.5V63a11.54,11.54,0,0,0,2,7.62c.91,1.19,2.67,2.68,8.88,4.7a35.92,35.92,0,0,0,7.28,1.74.5.5,0,0,1-.08,1Z"></path><path d="M53.48,55.41a.5.5,0,0,1-.5-.5c0-5.32,1.43-21.28,1.44-21.44A2.45,2.45,0,0,1,57,31.4h.16a2.4,2.4,0,0,1,2.42,2.07l1,14.44a.5.5,0,0,1-.47.54.49.49,0,0,1-.53-.46l-1-14.45a1.44,1.44,0,0,0-1.5-1.15H57a1.47,1.47,0,0,0-1.56,1.16c0,.17-1.44,16.08-1.44,21.36A.5.5,0,0,1,53.48,55.41Z"></path><path d="M15.12,27.17a.5.5,0,0,1-.5-.5.51.51,0,0,1,.5-.5h6.5a.51.51,0,0,1,.5.5.5.5,0,0,1-.5.5Z"></path><path d="M19,41.05a.5.5,0,0,1-.26-.93l5.55-3.38a.51.51,0,0,1,.69.17.5.5,0,0,1-.17.69L19.27,41A.59.59,0,0,1,19,41.05Z"></path><path d="M24.89,16.14a.47.47,0,0,1-.27-.08l-5.44-3.54a.51.51,0,0,1-.14-.7.5.5,0,0,1,.69-.14l5.44,3.54a.51.51,0,0,1,.14.7A.5.5,0,0,1,24.89,16.14Z"></path><path d="M84.87,27.52H78.38a.5.5,0,0,1-.5-.5.5.5,0,0,1,.5-.5h6.49a.5.5,0,0,1,.5.5A.5.5,0,0,1,84.87,27.52Z"></path><path d="M81,41.4a.48.48,0,0,1-.26-.07L75.17,38a.5.5,0,0,1,.52-.86l5.55,3.38a.5.5,0,0,1,.16.69A.49.49,0,0,1,81,41.4Z"></path><path d="M75.1,16.49a.5.5,0,0,1-.28-.91L80.26,12a.5.5,0,0,1,.69.14.51.51,0,0,1-.14.7l-5.44,3.54A.45.45,0,0,1,75.1,16.49Z"></path></g></svg></svg></g></svg>